<svg width="40" height="40" viewBox="0 0 40 40" fill="none" xmlns="http://www.w3.org/2000/svg">
<path d="M14.5864 6.38664C16.4988 6.38664 18.3328 7.26652 19.685 8.83273C21.0373 10.3989 21.797 12.5232 21.797 14.7381C21.797 16.953 21.0373 19.0773 19.685 20.6435C18.3328 22.2097 16.4988 23.0896 14.5864 23.0896C12.674 23.0896 10.84 22.2097 9.48777 20.6435C8.13553 19.0773 7.37585 16.953 7.37585 14.7381C7.37585 12.5232 8.13553 10.3989 9.48777 8.83273C10.84 7.26652 12.674 6.38664 14.5864 6.38664ZM14.5864 27.2653C19.3995 27.2653 29.0075 30.063 29.0075 35.6167V39.7925H0.165283V35.6167C0.165283 30.063 9.77336 27.2653 14.5864 27.2653ZM28.5749 7.13827C32.2162 11.7316 32.2162 18.0996 28.5749 22.317L25.5465 18.7886C27.0607 16.3249 27.0607 13.1304 25.5465 10.6668L28.5749 7.13827ZM34.5416 0.123047C41.626 8.5789 41.5719 21.2314 34.5416 29.3532L31.6033 25.9499C36.5967 19.3105 36.5967 9.83162 31.6033 3.52627L34.5416 0.123047Z" fill="white"/>
</svg>
