<svg width="40" height="40" viewBox="0 0 40 40" fill="none" xmlns="http://www.w3.org/2000/svg">
<path d="M27.8016 19.9545C27.8016 18.9363 23.4264 12.3545 23.4264 12.3545C23.0793 11.7561 21.9636 11.7561 20.9355 12.3528C19.9074 12.9495 19.3553 13.9181 19.7041 14.5181L20.1901 15.3545L21.5471 17.7098H15.0479L12.6843 17.7065C11.9934 17.7065 11.4314 18.7148 11.4281 19.9545V19.9611C11.4314 21.2007 11.9934 22.209 12.6843 22.209L15.0479 22.2073H21.5471L20.1917 24.5611L19.7041 25.3991C19.357 25.9974 19.9074 26.9677 20.9355 27.5644C21.9636 28.1594 23.0793 28.1594 23.4264 27.5611C23.4264 27.5611 27.8016 20.9792 27.8016 19.9611V19.9545ZM20 32.3098C16.7242 32.3098 13.5826 31.0085 11.2663 28.6922C8.95003 26.3759 7.64875 23.2343 7.64875 19.9586C7.64875 16.6828 8.95003 13.5412 11.2663 11.2249C13.5826 8.90863 16.7242 7.60734 20 7.60734C23.2757 7.60734 26.4173 8.90863 28.7336 11.2249C31.0499 13.5412 32.3512 16.6828 32.3512 19.9586C32.3512 23.2343 31.0499 26.3759 28.7336 28.6922C26.4173 31.0085 23.2757 32.3098 20 32.3098ZM36.4247 19.9578C36.4247 19.4255 36.3994 18.8994 36.3487 18.3792L39.8347 16.0404C39.6627 15.1568 39.4307 14.2859 39.1404 13.4338L34.952 13.1495C34.5128 12.1892 33.9825 11.2731 33.3686 10.414L35.2132 6.65528C34.6205 5.9751 33.9821 5.33615 33.3024 4.74288L29.5421 6.58586C28.6824 5.97177 27.7658 5.44152 26.8049 5.00239L26.5206 0.815609C25.6696 0.526026 24.7998 0.294638 23.9173 0.123047L21.5785 3.60734C20.5275 3.5064 19.4692 3.5064 18.4182 3.60734L16.0843 0.123047C15.1983 0.295823 14.3252 0.528871 13.4711 0.820568L13.1901 5.00404C12.2286 5.44308 11.3114 5.97333 10.4512 6.58751L6.6942 4.74288C6.01541 5.33792 5.3785 5.97539 4.78346 6.65528L6.63305 10.414C6.01848 11.2731 5.48767 12.1891 5.04792 13.1495L0.859497 13.4338C0.56921 14.2859 0.337269 15.1568 0.165283 16.0404L3.65123 18.3759C3.55018 19.4275 3.55018 20.4864 3.65123 21.5379L0.165283 23.8735C0.337123 24.7582 0.569065 25.6302 0.859497 26.4834L5.04792 26.7644C5.4909 27.7308 6.01927 28.6415 6.63305 29.4966L4.78181 33.2569C5.37905 33.9379 6.01817 34.5759 6.69916 35.171L10.4578 33.3247C11.3124 33.933 12.2264 34.4652 13.1917 34.9065L13.4727 39.095C14.3206 39.3809 15.1884 39.6189 16.081 39.7925L18.4198 36.3049C18.9405 36.3528 19.4644 36.3842 20 36.3842C20.5306 36.3842 21.0611 36.3511 21.5818 36.3032L23.9206 39.7925C24.8021 39.6191 25.6708 39.3861 26.5206 39.095L26.8049 34.9065C27.7702 34.4652 28.6892 33.933 29.5438 33.3247L33.3024 35.171C33.9812 34.577 34.6181 33.9401 35.2132 33.2602L33.3702 29.5016C33.9829 28.6454 34.5101 27.733 34.952 26.7644L39.1371 26.4834C39.4288 25.6297 39.6618 24.7572 39.8347 23.8718L36.3504 21.5379C36.4004 21.0127 36.4252 20.4854 36.4247 19.9578ZM37.5123 29.9677C37.6991 29.9677 38.033 30.0024 38.033 29.7594C38.033 29.604 37.8264 29.5759 37.6611 29.5759H37.2545V29.9677H37.5123ZM38.2264 30.885H37.9685L37.5123 30.1826H37.2562V30.885H37.0413V29.3611H37.7041C37.9801 29.3611 38.2479 29.4354 38.2479 29.7627C38.2479 30.0635 38.0396 30.1759 37.7652 30.1826L38.2264 30.885ZM38.7454 30.1297C38.7419 29.8175 38.6159 29.5191 38.3946 29.299C38.1732 29.0788 37.8741 28.9545 37.5619 28.9528C37.2494 28.9541 36.95 29.0782 36.7283 29.2984C36.5065 29.5186 36.3803 29.8172 36.3768 30.1297C36.3768 30.7875 36.9223 31.3115 37.5619 31.3115C37.875 31.3097 38.1748 31.1847 38.3963 30.9635C38.6178 30.7423 38.7432 30.4427 38.7454 30.1297ZM36.1619 30.1297C36.1619 29.3561 36.7785 28.7396 37.5619 28.7396C37.7454 28.738 37.9273 28.7729 38.0972 28.8421C38.2671 28.9113 38.4216 29.0135 38.5518 29.1427C38.682 29.272 38.7852 29.4257 38.8556 29.5951C38.926 29.7645 38.9622 29.9462 38.9619 30.1297C38.9628 30.3135 38.9272 30.4957 38.8571 30.6657C38.787 30.8357 38.6838 30.99 38.5535 31.1198C38.4233 31.2496 38.2686 31.3522 38.0984 31.4217C37.9281 31.4912 37.7458 31.5262 37.5619 31.5247C37.3781 31.5262 37.1957 31.4912 37.0255 31.4217C36.8553 31.3522 36.7006 31.2496 36.5703 31.1198C36.4401 30.99 36.3369 30.8357 36.2668 30.6657C36.1967 30.4957 36.1611 30.3135 36.1619 30.1297Z" fill="white"/>
</svg>
