<svg width="27" height="27" viewBox="0 0 27 27" fill="none" xmlns="http://www.w3.org/2000/svg">
<g clip-path="url(#clip0_485_3886)">
<path d="M0.887207 2.31467C0.887207 1.28158 1.74567 0.444336 2.80487 0.444336H25.0824C26.1416 0.444336 27.0001 1.28158 27.0001 2.31467V24.6869C27.0001 25.7199 26.1416 26.5572 25.0824 26.5572H2.80487C1.74567 26.5572 0.887207 25.7199 0.887207 24.6869V2.31467ZM8.95445 22.3041V10.5125H5.03589V22.3041H8.95445ZM6.99598 8.90164C8.36201 8.90164 9.21231 7.99748 9.21231 6.86483C9.18783 5.70771 8.36364 4.82803 7.0221 4.82803C5.68055 4.82803 4.80414 5.70934 4.80414 6.86483C4.80414 7.99748 5.65443 8.90164 6.96987 8.90164H6.99598ZM15.0061 22.3041V15.7187C15.0061 15.3662 15.0322 15.0137 15.1367 14.7623C15.419 14.0589 16.0637 13.3294 17.1474 13.3294C18.5656 13.3294 19.1319 14.4098 19.1319 15.9962V22.3041H23.0505V15.5408C23.0505 11.9177 21.1181 10.2334 18.5395 10.2334C16.4603 10.2334 15.5284 11.3758 15.0061 12.1804V12.2212H14.98L15.0061 12.1804V10.5125H11.0892C11.1381 11.619 11.0892 22.3041 11.0892 22.3041H15.0061Z" fill="white"/>
</g>
<defs>
<clipPath id="clip0_485_3886">
<rect width="26.1129" height="26.1129" fill="white" transform="translate(0.887207 0.444336)"/>
</clipPath>
</defs>
</svg>
