<svg width="35" height="35" viewBox="0 0 35 35" fill="none" xmlns="http://www.w3.org/2000/svg">
<path fill-rule="evenodd" clip-rule="evenodd" d="M17.4331 32.755C25.8577 32.755 32.6871 25.9255 32.6871 17.501C32.6871 9.0765 25.8577 2.24707 17.4331 2.24707C9.00863 2.24707 2.1792 9.0765 2.1792 17.501C2.1792 25.0193 7.6184 31.2673 14.7764 32.5244V22.1661H10.8957V17.8607H14.7764V14.5793C14.7764 10.847 17.0571 8.78448 20.5496 8.78448C22.2213 8.78448 23.9706 9.07538 23.9706 9.07538V12.7408H22.0422C20.1436 12.7408 19.5526 13.8899 19.5526 15.068V17.8607H23.7914L23.1138 22.1661H19.5526V32.5746C18.8169 32.6873 18.0652 32.748 17.3001 32.7544C17.3444 32.7548 17.3888 32.755 17.4331 32.755Z" fill="white"/>
</svg>
