<svg width="36" height="35" viewBox="0 0 36 35" fill="none" xmlns="http://www.w3.org/2000/svg">
<path d="M17.7276 22.7297C20.7364 22.7297 23.1755 20.2906 23.1755 17.2818C23.1755 14.2731 20.7364 11.834 17.7276 11.834C14.7189 11.834 12.2798 14.2731 12.2798 17.2818C12.2798 20.2906 14.7189 22.7297 17.7276 22.7297Z" stroke="white" stroke-width="2.17914" stroke-linecap="round" stroke-linejoin="round"/>
<path d="M23.7202 4.75195H11.7349C8.12441 4.75195 5.19751 7.67885 5.19751 11.2894V23.2746C5.19751 26.8851 8.12441 29.812 11.7349 29.812H23.7202C27.3307 29.812 30.2576 26.8851 30.2576 23.2746V11.2894C30.2576 7.67885 27.3307 4.75195 23.7202 4.75195Z" stroke="white" stroke-width="2.17914" stroke-linecap="round" stroke-linejoin="round"/>
<path d="M24.8096 11.8341C25.7123 11.8341 26.444 11.1024 26.444 10.1998C26.444 9.29715 25.7123 8.56543 24.8096 8.56543C23.907 8.56543 23.1753 9.29715 23.1753 10.1998C23.1753 11.1024 23.907 11.8341 24.8096 11.8341Z" fill="white"/>
</svg>
