<svg width="46" height="46" viewBox="0 0 46 46" fill="none" xmlns="http://www.w3.org/2000/svg">
<g clip-path="url(#clip0_485_3816)">
<path d="M1.89069 16.6646L1.01201 15.4314L0.375732 15.8859V16.6646H1.89069ZM23.1001 1.515L23.9787 0.281824C23.7222 0.0991448 23.415 0.000976562 23.1001 0.000976562C22.7851 0.000976562 22.478 0.0991448 22.2214 0.281824L23.1001 1.515ZM44.3095 16.6646H45.8244V15.8859L45.1881 15.4314L44.3095 16.6646ZM7.95051 25.7543V24.2393H6.43556V25.7543H7.95051ZM20.0702 25.7543H21.5851V24.2393H20.0702V25.7543ZM3.40564 45.4487V16.6646H0.375732L0.375732 45.4487H3.40564ZM2.76936 17.8977L23.9787 2.74817L22.2214 0.281824L1.01201 15.4314L2.76936 17.8977ZM22.2214 2.74817L43.4308 17.8977L45.1881 15.4314L23.9787 0.281824L22.2214 2.74817ZM42.7945 16.6646V45.4487H45.8244V16.6646H42.7945ZM9.46547 45.4487V25.7543H6.43556V45.4487H9.46547ZM7.95051 27.2693H20.0702V24.2393H7.95051V27.2693ZM18.5552 25.7543V45.4487H21.5851V25.7543H18.5552ZM15.5253 36.359H20.0702V33.3291H15.5253V36.359ZM33.7048 24.2393V36.359H36.7347V24.2393H33.7048ZM39.7646 6.05987V13.6346H42.7945V6.05987H39.7646Z" fill="black"/>
</g>
<defs>
<clipPath id="clip0_485_3816">
<rect width="45.4487" height="45.4487" fill="white" transform="translate(0.375732)"/>
</clipPath>
</defs>
</svg>
