<svg width="24" height="27" viewBox="0 0 24 27" fill="none" xmlns="http://www.w3.org/2000/svg">
<path d="M23.4538 7.9924V12.0265C23.2366 12.0265 22.9764 12.0706 22.7162 12.0706C20.8247 12.0604 18.9971 11.3844 17.5543 10.161V18.7496C17.5612 20.4403 17.0128 22.0865 15.9932 23.4352C15.2739 24.4028 14.3385 25.189 13.2616 25.731C12.1847 26.2731 10.9961 26.5561 9.79047 26.5575C8.47884 26.5577 7.18885 26.2232 6.04265 25.5855C4.89644 24.9479 3.93195 24.0283 3.24048 22.9137C4.62853 24.2147 6.49287 25.0393 8.53251 25.0393C9.73265 25.0414 10.9163 24.7595 11.9866 24.2167C13.057 23.6738 13.9837 22.8855 14.6911 21.9159C15.6459 20.615 16.2534 19.0097 16.2534 17.2314V8.59878C17.6414 9.81374 19.4198 10.5083 21.4153 10.5083C21.6755 10.5083 21.8927 10.5083 22.1529 10.4642V7.8623C22.5432 7.9494 22.8904 7.9924 23.2807 7.9924H23.4538Z" fill="white"/>
<path d="M10.8748 10.9845V15.4529C10.5637 15.3674 10.2427 15.3237 9.92005 15.3228C8.01051 15.3228 6.44937 16.9281 6.44937 18.8795C6.44937 19.3139 6.53646 19.7042 6.66656 20.0945C5.79889 19.444 5.19141 18.4021 5.19141 17.2313C5.19141 15.2798 6.75255 13.6746 8.6621 13.6746C9.00828 13.6746 9.31257 13.7187 9.61576 13.8047V10.9415H9.87595C10.2232 10.9415 10.5705 10.9415 10.8737 10.9856L10.8748 10.9845ZM18.2043 4.78176C17.4237 4.08718 16.8592 3.13351 16.556 2.13574H17.5979V2.74322C17.6941 3.45021 17.8986 4.13706 18.2043 4.78176Z" fill="white"/>
<path d="M22.1953 7.90516V10.5071C21.9781 10.5512 21.7179 10.5512 21.4577 10.5512C19.5664 10.5417 17.7389 9.86638 16.2958 8.64383V17.2324C16.3022 18.9223 15.7538 20.5677 14.7346 21.9158C13.3025 23.8253 11.0909 25.0392 8.57495 25.0392C6.53531 25.0392 4.67098 24.2156 3.28292 22.9136C2.51932 21.6748 2.11403 20.2487 2.11206 18.7935C2.11206 14.5852 5.45265 11.1587 9.61571 11.0286V13.8918C9.30499 13.8064 8.9843 13.7626 8.66205 13.7617C6.75251 13.7617 5.19136 15.3658 5.19136 17.3184C5.19136 18.4892 5.75584 19.5741 6.66651 20.1816C7.1439 21.5266 8.44485 22.5233 9.9189 22.5233C11.8284 22.5233 13.3896 20.918 13.3896 18.9666V2.13574H16.556C16.8603 3.17761 17.4237 4.08718 18.2042 4.78176C18.5987 5.56394 19.1609 6.24944 19.8508 6.78933C20.5407 7.32923 21.3412 7.71023 22.1953 7.90516Z" fill="white"/>
<path d="M9.61645 9.46698V10.9399C5.45229 11.07 2.1128 14.4966 2.1128 18.7049C2.1128 20.223 2.54608 21.6111 3.28366 22.826C2.52334 22.089 1.92002 21.2057 1.51 20.2293C1.09999 19.253 0.891752 18.2038 0.897835 17.1448C0.897835 12.8495 4.36852 9.37988 8.61868 9.37988C8.96597 9.37988 9.31326 9.42398 9.61645 9.46698Z" fill="white"/>
<path d="M16.5567 2.13558H13.3903V18.8793C13.3903 20.8308 11.8292 22.4371 9.92073 22.4371C8.40258 22.4371 7.14462 21.4824 6.66724 20.0943C7.23062 20.4846 7.92409 20.7448 8.66277 20.7448C10.5701 20.7448 12.1324 19.1836 12.1324 17.2311V0.444336H16.3406V0.531434C16.3406 0.704527 16.3406 0.877621 16.3836 1.05182C16.3836 1.39911 16.4707 1.78939 16.5567 2.13558ZM22.196 6.29974V7.862C20.4607 7.51471 18.9866 6.34385 18.162 4.78159C18.7015 5.28753 19.3355 5.68206 20.0278 5.94257C20.72 6.20308 21.4568 6.32445 22.196 6.29974Z" fill="white"/>
</svg>
