<svg width="36" height="35" viewBox="0 0 36 35" fill="none" xmlns="http://www.w3.org/2000/svg">
<path d="M13.144 30.5757C9.6193 30.5757 6.33363 29.5505 3.56812 27.7816C5.91613 27.9336 10.0598 27.5697 12.6372 25.1113C8.75999 24.9334 7.01144 21.9597 6.78336 20.6889C7.1128 20.816 8.68397 20.9685 9.57091 20.6127C5.11083 19.4944 4.42662 15.5803 4.57866 14.3858C5.41493 14.9703 6.83405 15.1737 7.39156 15.1228C3.23557 12.1492 4.73071 7.67598 5.46561 6.71017C8.4481 10.8422 12.9179 13.1628 18.4477 13.2919C18.3434 12.8346 18.2883 12.3586 18.2883 11.8696C18.2883 8.3604 21.1248 5.51562 24.6237 5.51562C26.4518 5.51562 28.0991 6.29222 29.2554 7.53442C30.4771 7.24815 32.3156 6.57803 33.2144 5.99853C32.7614 7.62514 31.3509 8.98207 30.4978 9.485C30.4908 9.46782 30.5049 9.50211 30.4978 9.485C31.2472 9.37164 33.275 8.98194 34.076 8.43845C33.6799 9.35227 32.1845 10.8716 30.9574 11.7223C31.1857 21.7917 23.4816 30.5757 13.144 30.5757Z" fill="white"/>
</svg>
