<svg width="40" height="40" viewBox="0 0 40 40" fill="none" xmlns="http://www.w3.org/2000/svg">
<path d="M28.6479 23.9247C28.8066 22.6156 28.9256 21.3065 28.9256 19.9578C28.9256 18.609 28.8066 17.2999 28.6479 15.9908H35.352C35.6694 17.2602 35.8677 18.5892 35.8677 19.9578C35.8677 21.3264 35.6694 22.6553 35.352 23.9247M25.1372 34.9528C26.3272 32.7511 27.2396 30.371 27.8743 27.8916H33.7256C31.8039 31.2006 28.7552 33.7072 25.1372 34.9528ZM24.6413 23.9247H15.3587C15.1603 22.6156 15.0413 21.3065 15.0413 19.9578C15.0413 18.609 15.1603 17.2801 15.3587 15.9908H24.6413C24.8198 17.2801 24.9586 18.609 24.9586 19.9578C24.9586 21.3065 24.8198 22.6156 24.6413 23.9247ZM20 35.7462C18.3537 33.366 17.0248 30.728 16.2115 27.8916H23.7884C22.9752 30.728 21.6463 33.366 20 35.7462ZM12.0661 12.0239H6.27437C8.1758 8.70559 11.2224 6.19493 14.843 4.96272C13.6529 7.16437 12.7603 9.54454 12.0661 12.0239ZM6.27437 27.8916H12.0661C12.7603 30.371 13.6529 32.7511 14.843 34.9528C11.2296 33.7078 8.18701 31.2005 6.27437 27.8916ZM4.64792 23.9247C4.33057 22.6553 4.13222 21.3264 4.13222 19.9578C4.13222 18.5892 4.33057 17.2602 4.64792 15.9908H11.352C11.1934 17.2999 11.0744 18.609 11.0744 19.9578C11.0744 21.3065 11.1934 22.6156 11.352 23.9247M20 4.14949C21.6463 6.52966 22.9752 9.18751 23.7884 12.0239H16.2115C17.0248 9.18751 18.3537 6.52966 20 4.14949ZM33.7256 12.0239H27.8743C27.2526 9.56756 26.3334 7.19631 25.1372 4.96272C28.7867 6.2123 31.8214 8.73131 33.7256 12.0239ZM20 0.123047C9.03139 0.123047 0.165283 9.04867 0.165283 19.9578C0.165283 25.2183 2.255 30.2633 5.97473 33.983C7.81655 35.8248 10.0031 37.2859 12.4096 38.2826C14.816 39.2794 17.3952 39.7925 20 39.7925C25.2605 39.7925 30.3055 37.7028 34.0252 33.983C37.7449 30.2633 39.8347 25.2183 39.8347 19.9578C39.8347 17.353 39.3216 14.7738 38.3248 12.3673C37.3281 9.96089 35.867 7.77432 34.0252 5.9325C32.1834 4.09068 29.9968 2.62966 27.5904 1.63287C25.1839 0.636087 22.6047 0.123047 20 0.123047Z" fill="white"/>
</svg>
